<svg xmlns="http://www.w3.org/2000/svg" width="392.6" height="109.5" viewBox="0 0 392.6 109.5"><defs><style>.a{fill:#fff;}.b{fill:#e67a1e;}.c{fill:none;stroke:#e67a1e;stroke-width:0.8px;}</style></defs><title>logo</title><path class="a" d="M179.8,26.1h-3.1C174.4,8.9,163.8,4.2,149,4.2h-8.9V39.7c11.8,0,19.8-1.2,19.8-16.9H163V59.9h-3.1c0-15.7-8-16.9-19.8-16.9V77.5h10.7v3.4H113.7V77.5h10.1V4.2H113.7V.9h66.1Z"/><path class="a" d="M201.1,82.2c-16.2,0-27.2-11.2-27.2-28.7,0-16.6,11.2-28.7,27.2-28.7S228.3,37,228.3,53.5,217.1,82.2,201.1,82.2Zm0-54.2c-10.9,0-10.9,12.3-10.9,25.4s0,25.4,10.9,25.4S212,66.5,212,53.4,212,28,201.1,28Z"/><path class="a" d="M282.8,64.3c-3.4,11-10.2,17.9-22,17.9-16.2,0-27.2-11.2-27.2-28.7,0-16.6,11.2-28.7,27.2-28.7,8.2,0,20.2,2.1,20.2,14.4,0,4.1-2.4,6.3-6.2,6.3-6.1,0-7.6-3.5-7.6-9.4,0-5-2-7.9-6.4-7.9-10.9,0-10.9,12.3-10.9,25.4,0,10.4,1,24.1,13.9,24.1,8.9,0,13.3-6.6,16.1-14.5Z"/><path class="a" d="M342.8,77.5h7.5v3.4c-10.3.1-16.3.2-22.6.7V73h-.2a19,19,0,0,1-16.7,9.2c-10.6,0-18-4-18-18.5V29.4h-7.5V26h6.5c5.3,0,10.8-.2,16.1-.7V67c0,8.6,3.9,9.7,8.2,9.7,6.7,0,11.6-5.9,11.6-17.9V29.4h-7.5V26h6.5c5.3,0,10.8-.2,16.1-.7Z"/><path class="a" d="M353.1,60.1h3.1c.4,10.1,6.6,18.7,15.7,18.7,5.3,0,10.6-2.2,10.6-8.1,0-12.9-28.7-7.2-28.7-28.9,0-11.5,8.3-17.2,18.4-17.2a36.25,36.25,0,0,1,16.2,3.6V42.6h-3.1C384.6,34.9,379,28,371.5,28c-4.2,0-7.6,2.4-7.6,6.9,0,11.4,28.7,6.2,28.7,28.1,0,12.4-10.5,19.1-21.1,19.1-8,0-14.6-2.5-18.4-3.9Z"/><path class="a" d="M0,77.5H7.5V29.4H0V26H6.5c5.3,0,10.8-.2,16.1-.7V77.4h7.5v3.4H0Z"/><path class="a" d="M30.8,77.5h7.5V29.4H30.8V26h6.5c5.3,0,10.8-.2,16.1-.7v8.3h.2c3.6-5.9,9.3-8.9,16.7-8.9,10.6,0,18,6,18,18.5V77.5h7.5v3.4H65.7V77.5h7.5V40.9C73.2,32.2,69.3,30,65,30c-5.9,0-11.6,6-11.6,15.4v32H61v3.4H30.8Z"/><circle class="b" cx="15.2" cy="9.2" r="9.2"/><path class="b" d="M119.6,94.1l2.2,6.6h-4.4Zm-1.1-1.6-4.6,13.4h1.7l1.2-3.7h5.4l1.2,3.7h1.8l-4.6-13.4Z"/><path class="b" d="M151.5,101.8a3.91,3.91,0,0,1-1.4,1.7,4.59,4.59,0,0,1-1.6.7,12.48,12.48,0,0,1-2.1.2h-1.6V94h1.6a11.24,11.24,0,0,1,2,.2,4.42,4.42,0,0,1,1.6.6,3.53,3.53,0,0,1,1.5,1.7,6.84,6.84,0,0,1,.5,2.7A9.23,9.23,0,0,1,151.5,101.8Zm1.5-6a6.3,6.3,0,0,0-2-2.3,7.5,7.5,0,0,0-1.8-.8,11.19,11.19,0,0,0-2.9-.3h-3.1v13.4h3.2a10.88,10.88,0,0,0,2.8-.3,6.39,6.39,0,0,0,1.9-.8,5.68,5.68,0,0,0,2-2.3,7.25,7.25,0,0,0,.7-3.3A11.4,11.4,0,0,0,153,95.8Z"/><path class="b" d="M180.4,92.5h1.7l-4.6,13.4h-2.2l-4.6-13.4h1.8l3.9,11.8Z"/><path class="b" d="M208.1,104.3v1.6h-8.3V92.5h8.3v1.6h-6.6v3.7h6.6v1.6h-6.6v5h6.6Z"/><path class="b" d="M232.9,97.5a2.36,2.36,0,0,1-.6.9,2.07,2.07,0,0,1-1,.6,6.15,6.15,0,0,1-1.4.1h-1.7V94h2a4.87,4.87,0,0,1,1.2.1,3.55,3.55,0,0,1,.9.4,1.56,1.56,0,0,1,.6.8,3,3,0,0,1,.2,1A2.17,2.17,0,0,1,232.9,97.5Zm1.3,1.1a3.79,3.79,0,0,0,.7-2.4,3.42,3.42,0,0,0-.4-1.8,3.18,3.18,0,0,0-1.1-1.2,3.51,3.51,0,0,0-1.4-.6,9.2,9.2,0,0,0-1.9-.2h-3.5v13.4h1.7v-5.3h2.4l4.2,5.3h2.2l-4.7-5.9A3.8,3.8,0,0,0,234.2,98.6Z"/><path class="b" d="M262.9,92.5v1.6h-4.5v11.8h-1.7V94.1h-4.5V92.5Z"/><path class="b" d="M284.9,104.5v1.4h-5v-1.4h1.6V93.9H280V92.5h5v1.4h-1.6v10.7h1.5Z"/><path class="b" d="M312.7,102.1a4,4,0,0,1-.3,1.5,3.05,3.05,0,0,1-1,1.3,5.07,5.07,0,0,1-1.6.9,6.87,6.87,0,0,1-2.2.3,8.75,8.75,0,0,1-2.4-.3,9.75,9.75,0,0,1-2.2-.8v-2.2h.1a6.11,6.11,0,0,0,2.2,1.3,6.82,6.82,0,0,0,2.3.5,4.27,4.27,0,0,0,2.4-.6,2,2,0,0,0,.9-1.7,1.7,1.7,0,0,0-.4-1.3,3.46,3.46,0,0,0-1.2-.7c-.4-.1-.9-.2-1.4-.3s-1-.2-1.6-.3a5.39,5.39,0,0,1-2.5-1.3A3.65,3.65,0,0,1,303,96a3.54,3.54,0,0,1,1.3-2.8,5.33,5.33,0,0,1,3.4-1.1,8.75,8.75,0,0,1,2.4.3,11.76,11.76,0,0,1,2,.7v2.1H312a6.79,6.79,0,0,0-1.9-1.1,6.72,6.72,0,0,0-2.4-.4,3.8,3.8,0,0,0-2.2.6,1.9,1.9,0,0,0-.8,1.5,1.7,1.7,0,0,0,.4,1.3,2.31,2.31,0,0,0,1.4.7q.6.15,1.5.3a7.09,7.09,0,0,1,1.7.4,5.28,5.28,0,0,1,2.1,1.2A3,3,0,0,1,312.7,102.1Z"/><path class="b" d="M335.7,104.5v1.4h-5v-1.4h1.6V93.9h-1.6V92.5h5v1.4h-1.6v10.7h1.6Z"/><path class="b" d="M364,92.5v13.4h-2.1l-5.9-12v12h-1.6V92.5H357l5.4,10.9V92.5Z"/><path class="b" d="M391.9,99.2v5.7c-.7.3-1.4.6-2.2.9a10,10,0,0,1-2.4.4,7.66,7.66,0,0,1-2.7-.4,5.71,5.71,0,0,1-2.1-1.3,5.37,5.37,0,0,1-1.3-2.2,9.59,9.59,0,0,1-.5-3.1,7.22,7.22,0,0,1,1.8-5.1,6.55,6.55,0,0,1,4.8-1.9,8.92,8.92,0,0,1,2.2.3,18.63,18.63,0,0,1,2.4.9v2.1h-.2a8,8,0,0,1-.8-.6c-.3-.2-.7-.4-1-.6s-.8-.3-1.3-.5a7.93,7.93,0,0,0-1.7-.2,4.22,4.22,0,0,0-3.3,1.4,6.05,6.05,0,0,0-1.2,3.9,5.52,5.52,0,0,0,1.3,4,4.32,4.32,0,0,0,3.5,1.4,8.75,8.75,0,0,0,1.6-.2c.5-.1,1-.3,1.4-.4v-3.3h-3.4V98.8h5.1Z"/><line class="c" x1="114.4" y1="88.4" x2="391.5" y2="88.4"/><line class="c" x1="114.4" y1="109.1" x2="391.5" y2="109.1"/></svg>